<?xml version="1.0" encoding="UTF-8"?>
<svg width="31px" height="31px" viewBox="0 0 31 31" version="1.1" xmlns="http://www.w3.org/2000/svg" xmlns:xlink="http://www.w3.org/1999/xlink">
    <title>Group 3</title>
    <g id="Page-1" stroke="none" stroke-width="1" fill="none" fill-rule="evenodd">
        <g id="User-online" transform="translate(-1311.000000, -614.000000)">
            <g id="Group-3" transform="translate(1311.000000, 614.000000)">
                <rect id="Rectangle-Copy-3" fill="#F877BA" x="0" y="0" width="31" height="31" rx="15.5"></rect>
                <g id="message" transform="translate(7.000000, 9.000000)" fill="#FFFFFC" fill-rule="nonzero">
                    <path d="M14.9159823,0 L2.08404573,0 C0.934917083,0 0,0.927084848 0,2.06664227 L0,10.4136281 C0,11.5531578 0.934917083,12.4802704 2.08410175,12.4802704 L9.11140076,12.4802704 L9.11140076,16.4956936 C9.11140076,16.7062495 9.24333962,16.8946109 9.44225636,16.9682222 C9.50024223,16.9896666 9.56032903,17 9.61982757,17 C9.76456815,17 9.90580716,16.9386943 10.0043551,16.8258886 L13.8006087,12.4802704 L14.9159263,12.4802704 C16.0650829,12.4802704 17,11.5531855 17,10.4136281 L17,2.06664227 C17,0.927084848 16.0651389,0 14.9159823,0 Z M15.9829223,10.4136559 C15.9829223,10.997018 15.5043288,11.4716854 14.9159823,11.4716854 C14.9159823,11.4716854 13.6001793,11.4720187 13.5924478,11.4716854 C13.4421328,11.4647132 13.290137,11.5242133 13.1839416,11.6457968 L10.1285905,15.1433859 L10.1285905,11.9760473 C10.1285905,11.6975469 9.90087696,11.471741 9.62002366,11.471741 L2.08404573,11.471741 C1.49572727,11.471741 1.01707774,10.9970735 1.01707774,10.4137115 L1.01707774,2.06664227 C1.01707774,1.4832802 1.49572727,1.00861276 2.08404573,1.00861276 L14.9159263,1.00861276 C15.5042447,1.00861276 15.9829223,1.4832802 15.9829223,2.06664227 L15.9829223,10.4136281 L15.9829223,10.4136281 L15.9829223,10.4136559 Z" id="Shape"></path>
                    <path d="M14.5292098,3.26923077 L3.12463632,3.26923077 C2.84340484,3.26923077 2.61538462,3.41561236 2.61538462,3.59615385 C2.61538462,3.77669534 2.84340484,3.92307692 3.12463632,3.92307692 L14.5292098,3.92307692 C14.8104413,3.92307692 15.0384615,3.77669534 15.0384615,3.59615385 C15.0384615,3.41561236 14.8104974,3.26923077 14.5292098,3.26923077 Z" id="Path"></path>
                    <path d="M14.5292098,5.88461538 L3.12463632,5.88461538 C2.84340484,5.88461538 2.61538462,6.03099697 2.61538462,6.21153846 C2.61538462,6.39207995 2.84340484,6.53846154 3.12463632,6.53846154 L14.5292098,6.53846154 C14.8104413,6.53846154 15.0384615,6.39207995 15.0384615,6.21153846 C15.0384615,6.03099697 14.8104974,5.88461538 14.5292098,5.88461538 Z" id="Path"></path>
                    <path d="M8.63487481,8.5 L3.13429879,8.5 C2.84773126,8.5 2.61538462,8.64638159 2.61538462,8.82692308 C2.61538462,9.00746457 2.84773126,9.15384615 3.13429879,9.15384615 L8.63493198,9.15384615 C8.92149951,9.15384615 9.15384615,9.00746457 9.15384615,8.82692308 C9.15384615,8.64639959 8.92149951,8.5 8.63487481,8.5 Z" id="Path"></path>
                </g>
            </g>
        </g>
    </g>
</svg>