<?xml version="1.0" encoding="UTF-8"?>
<svg width="34px" height="33px" viewBox="0 0 34 33" version="1.1" xmlns="http://www.w3.org/2000/svg" xmlns:xlink="http://www.w3.org/1999/xlink">
    <title>group-svgrepo-com</title>
    <g id="Page-1" stroke="none" stroke-width="1" fill="none" fill-rule="evenodd">
        <g id="Chat" transform="translate(-907.000000, -127.000000)" fill="#816FC3" fill-rule="nonzero">
            <g id="Controls" transform="translate(450.000000, 112.000000)">
                <g id="Icons" transform="translate(366.000000, 15.000000)">
                    <g id="group-svgrepo-com" transform="translate(91.629630, 0.000000)">
                        <path d="M12.7569444,8.83930536 C12.7569444,10.6773116 13.5227811,12.7992441 14.8056104,14.5154729 C16.2592797,16.4602277 18.0953571,17.53125 19.975616,17.53125 C21.8558748,17.53125 23.6919523,16.4602277 25.1457,14.5154729 C26.4286078,12.7992441 27.1944444,10.6773116 27.1944444,8.83930536 C27.1944444,5.10258838 23.9560988,2.0625 19.9756944,2.0625 C15.9952901,2.0625 12.7569444,5.10258838 12.7569444,8.83930536 Z M19.975616,3.16755806 C23.3069544,3.16755806 26.0172423,5.71191739 26.0172423,8.83930536 C26.0172423,10.4346408 25.3140287,12.366356 24.1821066,13.8807275 C22.9728867,15.4983852 21.4397224,16.4261919 19.975616,16.4261919 C18.5115096,16.4261919 16.9782668,15.4983852 15.7691254,13.8807275 C14.6371248,12.366356 13.9339896,10.4345672 13.9339896,8.83930536 C13.9339896,5.71191739 16.6442776,3.16755806 19.975616,3.16755806 Z" id="Shape"></path>
                        <path d="M30.4675104,21.8208484 C29.2680037,19.985793 27.5793102,18.5208421 25.5840054,17.5844553 C25.3721231,17.4849437 25.119685,17.5276958 24.9534651,17.6910436 C23.6160832,19.0057058 22.0730357,19.7006091 20.4912824,19.7006091 C18.9093072,19.7006091 17.3666297,19.0057788 16.0300619,17.6911166 C15.863842,17.5276228 15.6113298,17.4849437 15.3994476,17.5843824 C13.4040688,18.5207691 11.7152273,19.9857201 10.5155726,21.8207754 C9.28328073,23.7057325 8.63194444,25.8925803 8.63194444,28.1450154 L8.63194444,28.1544996 C8.63194444,28.3089469 8.69810677,28.4560986 8.81407586,28.5598416 C12.0168061,31.423135 16.1638667,33 20.4912824,33 C24.8186982,33 28.9656848,31.423062 32.168563,28.5599146 C32.2845321,28.4561715 32.3506944,28.3089469 32.3506944,28.1545726 L32.3506944,28.1450883 C32.3506944,25.8925803 31.6995062,23.7056595 30.4675104,21.8208484 Z M20.4912824,31.9056641 C16.522949,31.9056641 12.716469,30.4890099 9.74456683,27.9118489 C9.78771296,25.9525499 10.3746631,24.0563577 11.4486538,22.4136136 C12.4675092,20.8552064 13.8751978,19.5912484 15.5358426,18.7397092 C17.0193144,20.0859612 18.7251036,20.794945 20.4912824,20.794945 C22.2570913,20.794945 23.9631764,20.0858883 25.4474624,18.7397092 C27.1079591,19.5911025 28.5155737,20.8550605 29.5342811,22.4135407 C30.6080498,24.0562118 31.1948519,25.952477 31.237998,27.9118489 C28.2660959,30.4890828 24.4596159,31.9056641 20.4912824,31.9056641 Z" id="Shape"></path>
                        <path d="M12.1234804,14.4375 C12.8128174,14.4375 13.5006795,14.2756821 14.1679753,13.956539 C14.4718801,13.8111945 14.595769,13.4564247 14.4447589,13.1640805 C14.2937488,12.8717363 13.9249499,12.7525601 13.6209632,12.8978258 C13.1249978,13.1349958 12.6211665,13.2551967 12.1233985,13.2551967 C10.832725,13.2551967 9.4771574,12.4115838 8.40435475,10.9407197 C7.39456174,9.55624249 6.76725118,7.79130009 6.76725118,6.33478121 C6.76725118,3.49370632 9.17005709,1.18230332 12.1234804,1.18230332 C13.5175585,1.18230332 14.8376474,1.69495005 15.8407216,2.6259745 C16.0848942,2.85258264 16.4740135,2.84596174 16.7096647,2.61099866 C16.9453158,2.37603558 16.9383512,2.00179717 16.6940966,1.77511021 C15.4606972,0.630404133 13.837441,0 12.1234804,0 C8.49235521,0 5.53819444,2.84178427 5.53819444,6.33478121 C5.53819444,8.04715053 6.23359474,10.0228582 7.39833084,11.6197559 C8.72358175,13.4367985 10.4017358,14.4375 12.1234804,14.4375 Z" id="Path"></path>
                        <path d="M5.58473284,23.6962641 C4.12998384,23.1258657 2.7882532,22.3548395 1.59270582,21.4028087 C1.63963581,19.7332769 2.18508618,18.1180025 3.17729713,16.7176343 C4.11468934,15.3945151 5.40586762,14.3187394 6.92863692,13.5880584 C8.32615227,14.7432798 9.92990195,15.3514606 11.5904828,15.3514606 C12.5827742,15.3514606 13.5576782,15.134431 14.4880672,14.7064492 C14.7855856,14.5695243 14.9048022,14.2392205 14.7543526,13.9685192 C14.6038224,13.6978912 14.2406987,13.5894496 13.9430998,13.7263013 C13.1832043,14.0758625 12.3916734,14.2530594 11.5904023,14.2530594 C10.1292135,14.2530594 8.70223611,13.6590836 7.46386413,12.5353476 C7.28306697,12.3713306 7.00824885,12.328569 6.77794579,12.4282972 C4.89213322,13.2449407 3.29603079,14.5224426 2.16230542,16.1227066 C0.997588553,17.766684 0.381944444,19.6739672 0.381944444,21.6383635 L0.381944444,21.6464179 C0.381944444,21.8014286 0.453909119,21.9491171 0.580048544,22.0532386 C1.92427461,23.1621106 3.4472854,24.054319 5.10673929,24.7049686 C5.18458027,24.7355753 5.26564115,24.75 5.34541407,24.75 C5.57909802,24.75 5.80167333,24.6257425 5.90012165,24.4179388 C6.03213739,24.1394028 5.89094495,23.816348 5.58473284,23.6962641 Z" id="Path"></path>
                        <path d="M6.3486792,24.9329704 C6.16320082,24.6766647 5.91153428,24.6905749 5.73370095,24.9687789 C5.55387026,25.2501505 5.48974832,25.7542231 5.57646102,26.1748344 C5.65518429,26.5567452 5.84748122,26.8125 6.05375963,26.8125 C6.28352415,26.8125 6.48897607,26.4969726 6.55089403,26.0555648 C6.6092994,25.6393606 6.52651254,25.1788091 6.3486792,24.9329704 Z" id="Path"></path>
                    </g>
                </g>
            </g>
        </g>
    </g>
</svg>