<?xml version="1.0" encoding="UTF-8"?>
<svg width="33px" height="30px" viewBox="0 0 33 30" version="1.1" xmlns="http://www.w3.org/2000/svg" xmlns:xlink="http://www.w3.org/1999/xlink">
    <title>message, discutions, chat svg icon</title>
    <g id="Page-1" stroke="none" stroke-width="1" fill="none" fill-rule="evenodd">
        <g id="Chat" transform="translate(-816.000000, -127.000000)" fill="#816FC3" fill-rule="nonzero">
            <g id="Controls" transform="translate(450.000000, 112.000000)">
                <g id="Icons" transform="translate(366.000000, 15.000000)">
                    <g id="message,-discutions,-chat-svg-icon">
                        <path d="M29.7396,0.0381325925 L10.9615,0 C9.163,0 7.7,1.44903851 7.7,3.23037533 L7.7,6.0216811 L3.2615,6.03094188 C1.463,6.03094188 0,7.47998039 0,9.26131721 L0,20.7779049 C0,22.5592417 1.463,24.0077355 3.26095,24.0077355 L6.6,24.0077355 L6.6,29.4552487 C6.6,29.680231 6.7397,29.8823337 6.95145,29.9635017 C7.01635,29.9880155 7.08345,30 7.15,30 C7.3018,30 7.45085,29.9373536 7.557,29.8218663 L12.8942,24.006646 L22.0385,23.9696029 C23.837,23.9696029 25.3,22.5205644 25.3,20.7397723 L25.3,20.6776706 L28.193,23.8296018 C28.29915,23.9450891 28.44765,24.0077355 28.6,24.0077355 C28.66655,24.0077355 28.73365,23.9957509 28.79855,23.9712371 C29.0103,23.8895244 29.15,23.6874217 29.15,23.4624394 L29.15,18.0149262 L29.7385,18.0149262 C31.537,18.0149262 33,16.5658877 33,14.7850956 L33,3.26850793 C33,1.48771586 31.53755,0.0386773438 29.7396,0.0381325925 Z M24.2,20.7392275 C24.2,21.9197037 23.23035,22.8795555 22.0363,22.8795555 L12.6478,22.9176881 C12.49325,22.9182328 12.34695,22.9830582 12.243,23.0958218 L7.7,28.045977 L7.7,23.4624394 C7.7,23.1617367 7.4536,22.9176881 7.15,22.9176881 L3.26095,22.9176881 C2.06965,22.9176881 1.1,21.9572915 1.1,20.7773601 L1.1,9.26077246 C1.1,8.08029634 2.06965,7.11989977 3.2626,7.11989977 L8.25,7.10954949 C8.25,7.10954949 8.25,7.10954949 8.25,7.10954949 C8.25,7.10954949 8.2511,7.10954949 8.2511,7.10954949 L21.9296,7.08176717 L22.0385,7.08176717 C22.7832,7.08176717 23.44155,7.45710083 23.8304,8.02636596 C24.0636,8.36792504 24.2,8.77975704 24.2,9.22263986 L24.2,19.268399 L24.2,20.7392275 Z M31.9,14.7850956 C31.9,15.9655717 30.93035,16.9254235 29.7385,16.9254235 L28.6,16.9254235 C28.2964,16.9254235 28.05,17.1694721 28.05,17.4701749 L28.05,22.0537125 L25.3,19.0575802 L25.3,9.22263986 C25.3,8.99983657 25.2769,8.7824808 25.23345,8.57275154 C25.21145,8.46761453 25.1845,8.36465653 25.15315,8.26333279 C24.73955,6.9493926 23.49985,5.99280928 22.03795,5.99280928 L22.03795,5.99280928 L22.03795,5.99280928 L21.98075,5.99280928 L8.8,6.01895735 L8.8,3.22983058 C8.8,2.04935447 9.76965,1.08895789 10.9604,1.08895789 L29.73795,1.12709048 C29.73795,1.12709048 29.7385,1.12709048 29.7385,1.12709048 C30.93035,1.12709048 31.9,2.08748706 31.9,3.26796317 L31.9,14.7850956 Z" id="Shape"></path>
                    </g>
                </g>
            </g>
        </g>
    </g>
</svg>