<?xml version="1.0" encoding="UTF-8"?>
<svg width="47px" height="47px" viewBox="0 0 47 47" version="1.1" xmlns="http://www.w3.org/2000/svg" xmlns:xlink="http://www.w3.org/1999/xlink">
    <title>Attachment</title>
    <defs>
        <linearGradient x1="26.8884092%" y1="50%" x2="100%" y2="50%" id="linearGradient-1">
            <stop stop-color="#F877BA" offset="0%"></stop>
            <stop stop-color="#FFC7CA" offset="100%"></stop>
        </linearGradient>
    </defs>
    <g id="Page-1" stroke="none" stroke-width="1" fill="none" fill-rule="evenodd">
        <g id="User-online" transform="translate(-1273.000000, -869.000000)">
            <g id="Attachment" transform="translate(1273.000000, 869.000000)">
                <rect id="Rectangle" fill="url(#linearGradient-1)" x="0" y="0" width="47" height="47" rx="23.5"></rect>
                <g id="attachment-svgrepo-com" transform="translate(11.000000, 11.000000)" fill="#FFFFFC" fill-rule="nonzero">
                    <path d="M6.4627451,24.8221834 C4.72990196,24.8221834 3.10539216,24.1769004 1.88823529,23.0052023 C0.671078431,21.8335042 -7.66271578e-14,20.2707683 -7.66271578e-14,18.6033155 C-7.66271578e-14,16.9363344 0.670588235,15.3731268 1.88823529,14.2019004 L15.2676471,1.3273721 C17.1818627,-0.513665641 20.1563725,-0.431118471 22.1862745,1.52218342 C24.2161765,3.4754853 24.3034314,6.33727776 22.3892157,8.17973059 L9.82009804,20.2745419 C8.64019608,21.4099193 6.71862745,21.4118061 5.53676471,20.2745419 C4.35588235,19.1377495 4.35637255,17.2886928 5.53676471,16.1528438 L14.0509804,7.95991927 C14.3382353,7.68350417 14.8034314,7.68350417 15.0906863,7.95991927 C15.3779412,8.23633436 15.3779412,8.68397587 15.0906863,8.96039096 L6.57647059,17.1533155 C5.96911765,17.7377495 5.96911765,18.6891645 6.57647059,19.2740702 C7.18480392,19.8585042 8.17303922,19.8575608 8.78039216,19.2740702 L21.3495098,7.17925889 C22.6705882,5.90756077 22.5838235,3.90567398 21.1465686,2.52265511 C19.7093137,1.13963625 17.6289216,1.05614568 16.3073529,2.32784379 L2.92794118,15.2023721 C1.98823529,16.1066174 1.47058824,17.3146362 1.47058824,18.6033155 C1.47058824,19.8924664 1.98823529,21.1004853 2.92794118,22.0047306 C3.86764706,22.9089759 5.12303922,23.4070891 6.4627451,23.4070891 C7.80196078,23.4070891 9.05735294,22.9089759 9.99705882,22.0047306 L23.3764706,9.13020228 C23.6637255,8.85378719 24.1289216,8.85378719 24.4161765,9.13020228 C24.7034314,9.40661738 24.7034314,9.85425889 24.4161765,10.130674 L11.0367647,23.0052023 C9.81960784,24.1764287 8.19509804,24.8221834 6.4627451,24.8221834 Z" id="Path"></path>
                </g>
            </g>
        </g>
    </g>
</svg>