<?xml version="1.0" encoding="UTF-8"?>
<svg width="294px" height="291px" viewBox="0 0 294 291" version="1.1" xmlns="http://www.w3.org/2000/svg" xmlns:xlink="http://www.w3.org/1999/xlink">
    <title>Group 6</title>
    <defs>
        <path d="M95.201,6.261 C92.61,6.077 91.032,9.071 92.667,11.09 C95.817,14.978 97.535,19.786 97.176,24.874 C96.349,36.572 84.875,45.293 71.549,44.351 C58.223,43.408 48.091,33.16 48.918,21.462 C49.277,16.374 51.655,11.856 55.322,8.449 C57.225,6.682 56.083,3.494 53.492,3.312 L21.106,1.022 C14.333,0.542 8.455,5.645 7.975,12.417 L5.759,43.763 C5.581,46.282 8.405,47.846 10.468,46.388 C14.136,43.794 18.503,42.419 23.102,42.744 C34.8,43.571 43.52,55.045 42.578,68.371 C41.636,81.697 31.388,91.829 19.688,91.002 C15.091,90.677 10.96,88.701 7.693,85.617 C5.857,83.883 2.841,85.034 2.663,87.554 L0.446,118.898 C-0.032,125.672 5.069,131.55 11.842,132.029 L118.324,139.559 C125.097,140.037 130.974,134.935 131.454,128.163 L138.983,21.681 C139.462,14.908 134.36,9.029 127.588,8.551 L95.201,6.261" id="path-1"></path>
        <path d="M116.727,102.415 C105.09,100.952 97.008,89.021 98.674,75.766 C100.34,62.511 111.124,52.952 122.76,54.414 C127.652,55.029 131.907,57.499 135.076,61.138 C136.759,63.07 139.938,62.077 140.258,59.534 L144.26,27.702 C145.106,20.966 140.332,14.818 133.595,13.972 L27.681,0.659 C20.944,-0.188 14.797,4.586 13.95,11.323 L0.637,117.237 C-0.209,123.974 4.565,130.121 11.301,130.968 L43.663,135.035 C46.253,135.361 47.988,132.432 46.44,130.329 C43.43,126.242 41.933,121.282 42.578,116.155 C44.041,104.519 55.971,96.436 69.227,98.103 C82.481,99.769 92.041,110.553 90.578,122.189 C89.934,127.315 87.256,131.751 83.328,134.966 C81.308,136.62 82.263,139.888 84.854,140.213 L117.215,144.281 C123.952,145.128 130.1,140.352 130.946,133.616 L134.948,101.784 C135.267,99.242 132.432,97.493 130.323,98.948 C126.352,101.689 121.619,103.029 116.727,102.415" id="path-3"></path>
        <path d="M158.811,2.091 L52.069,0.982313717 C45.279,0.912 39.719,6.359 39.648,13.148 L39.32,44.741 C39.294,47.258 36.337,48.63 34.428,46.99 C30.938,43.995 26.608,42.199 21.897,42.15 C10.17,42.028 0.551,52.759 0.410477296,66.117 C0.273,79.476 9.668,90.403 21.395,90.525 C26.106,90.574 30.473,88.869 34.022,85.947 C35.967,84.347 38.895,85.78 38.868,88.298 L38.54,119.89 C38.47,126.679 43.916,132.24 50.706,132.31 L83.36,132.649 C85.975,132.677 87.295,135.82 85.472,137.692 C81.916,141.343 79.749,146.071 79.695,151.256 C79.573,162.983 90.304,172.602 103.662,172.743501 C117.022,172.88 127.949,163.485 128.07,151.758 C128.125,146.573 126.057,141.801 122.577,138.078 C120.793,136.168 122.179,133.053 124.792,133.079 L157.447,133.418 C164.236,133.489 169.798,128.042 169.868,121.253 L170.976686,14.511 C171.047,7.722 165.6,2.161 158.811,2.091" id="path-5"></path>
        <path d="M150.829,76.716 C145.964,76.989 141.593,79.11 138.196,82.452 C136.378,84.24 133.298,83.023 133.155,80.477 L131.367,48.576 C130.987,41.798 125.184,36.61 118.405,36.99 L85.91,38.812 C83.31,38.957 81.779,35.927 83.457,33.935 C86.704,30.078 88.517,25.264 88.229,20.136 C87.573,8.427 76.229,-0.46 62.89,0.287 C49.552,1.035 39.271,11.134 39.927,22.844 C40.214,27.971 42.554,32.553 46.213,36.022 C48.102,37.814 46.919,40.997 44.319,41.143 L11.825,42.964 C5.046,43.344 -0.142,49.147 0.238,55.927 L6.212,162.507 C6.592,169.286 12.396,174.474 19.175,174.093 L125.755,168.119 C132.534,167.739 137.721,161.936 137.341,155.157 L135.553,123.256 C135.41,120.71 138.335,119.156 140.342,120.729 C144.091,123.671 148.672,125.291 153.536,125.019 C165.246,124.362 174.133,113.018 173.385,99.679 C172.638,86.341 162.539,76.06 150.829,76.716" id="path-7"></path>
    </defs>
    <g id="Page-1" stroke="none" stroke-width="1" fill="none" fill-rule="evenodd">
        <g id="3081634" transform="translate(-238.000000, -157.000000)">
            <g id="Group">
                <g id="Group-6" transform="translate(238.040252, 157.061000)">
                    <g id="Group-5" transform="translate(150.874916, 147.429000)">
                        <path d="M120.287832,140.85 C119.979832,140.85 119.668832,140.839 119.355832,140.817 L12.8738323,133.287 C5.69983225,132.78 0.275832253,126.53 0.782832253,119.356 L2.99983225,88.011 C3.13983225,86.036 4.74083225,84.548 6.72683225,84.548 C7.67683225,84.548 8.58783225,84.915 9.29283225,85.581 C12.5628323,88.669 16.5518323,90.461 20.8258323,90.764 C21.2558323,90.794 21.6838323,90.809 22.1088323,90.809 C32.9038323,90.809 42.0428323,81.154 42.9148323,68.828 C43.8258323,55.936 35.3998323,44.799 24.1338323,44.002 C23.7048323,43.972 23.2788323,43.957 22.8558323,43.957 C19.0308323,43.957 15.2728323,45.186 11.9848323,47.51 C11.3388323,47.967 10.5908323,48.208 9.81983225,48.208 C8.78183225,48.208 7.77783225,47.772 7.06783225,47.009 C6.36683225,46.257 6.02083225,45.266 6.09583225,44.22 L8.31183225,12.874 C8.79383225,6.075 14.5028323,0.75 21.3098323,0.75 C21.6178323,0.75 21.9308323,0.761 22.2428323,0.783 L54.6298323,3.074 C56.1368323,3.18 57.3848323,4.131 57.8888323,5.557 C58.3878323,6.974 58.0168323,8.489 56.9178323,9.509 C53.2708323,12.895 51.0818323,17.34 50.7508323,22.025 C49.9538323,33.292 59.7948323,43.2 72.6868323,44.113 C73.3228323,44.157 73.9678323,44.18 74.6028323,44.18 C86.7018323,44.18 96.7658323,35.901 97.5128323,25.331 C97.8438323,20.647 96.3008323,15.938 93.1688323,12.071 C92.2608323,10.95 92.0828323,9.446 92.7038323,8.144 C93.3308323,6.829 94.6158323,6.013 96.0598323,6.013 C96.1508323,6.013 96.2448323,6.016 96.3388323,6.023 L128.725832,8.313 C135.898832,8.82 141.322832,15.069 140.815832,22.243 L133.286832,128.726 C132.805832,135.525 127.095832,140.85 120.288832,140.85 L120.287832,140.85" id="Fill-98" fill="#8396C0"></path>
                        <path d="M21.3108323,1.42108547e-14 C14.1108323,1.42108547e-14 8.07283225,5.631 7.56383225,12.822 L5.34783225,44.166 C5.25883225,45.423 5.67483225,46.613 6.51983225,47.52 C7.37083225,48.435 8.57383225,48.959 9.81983225,48.959 C10.7458323,48.959 11.6448323,48.669 12.4178323,48.122 C15.5778323,45.888 19.1858323,44.707 22.8558323,44.707 C23.2618323,44.707 23.6738323,44.722 24.0798323,44.75 C34.9358323,45.518 43.0488323,56.295 42.1658323,68.775 C41.3218323,80.71 32.5128323,90.059 22.1088323,90.059 C21.7008323,90.059 21.2878323,90.044 20.8798323,90.016 C16.7788323,89.726 12.9508323,88.004 9.80783225,85.036 C8.96283225,84.237 7.86783225,83.798 6.72683225,83.798 C4.34283225,83.798 2.41883225,85.586 2.25083225,87.957 L0.0348322529,119.303 C-0.502167747,126.89 5.23383225,133.498 12.8208323,134.035 L119.302832,141.565 C119.630832,141.588 119.961832,141.6 120.287832,141.6 C127.487832,141.6 133.525832,135.968 134.034832,128.778 L141.563832,22.296 C142.100832,14.709 136.364832,8.101 128.777832,7.565 L96.3918323,5.275 C96.2798323,5.267 96.1688323,5.263 96.0598323,5.263 C94.3238323,5.263 92.7788323,6.243 92.0258323,7.821 C91.2798323,9.387 91.4938323,11.197 92.5858323,12.544 C95.6418323,16.316 97.0868323,20.719 96.7648323,25.279 C96.0448323,35.457 86.3108323,43.43 74.6028323,43.43 C73.9858323,43.43 73.3588323,43.407 72.7398323,43.365 C66.6578323,42.934 61.0958323,40.459 57.0778323,36.395 C53.1108323,32.383 51.1298323,27.299 51.4988323,22.077 C51.8208323,17.519 53.8718323,13.363 57.4278323,10.058 C58.7488323,8.83 59.1958323,7.011 58.5958323,5.308 C57.9918323,3.596 56.4928323,2.453 54.6838323,2.325 L22.2968323,0.035 C21.9698323,0.012 21.6378323,1.42108547e-14 21.3108323,1.42108547e-14 M21.3108323,1.49999985 C21.6028323,1.49999985 21.8968323,1.51 22.1908323,1.532 L54.5768323,3.822 C57.1678323,4.004 58.3098323,7.192 56.4068323,8.959 C52.7398323,12.366 50.3618323,16.884 50.0028323,21.972 C49.1758323,33.67 59.3078323,43.918 72.6338323,44.861 C73.2948323,44.908 73.9508323,44.93 74.6028323,44.93 C87.0718323,44.93 97.4748323,36.502 98.2608323,25.384 C98.6198323,20.296 96.9018323,15.488 93.7518323,11.6 C92.1648323,9.641 93.6048323,6.763 96.0598323,6.763 L96.2858323,6.771 L128.672832,9.061 C135.444832,9.539 140.546832,15.418 140.067832,22.191 L132.538832,128.673 C132.080832,135.151 126.683832,140.1 120.287832,140.1 C119.996832,140.1 119.702832,140.089 119.408832,140.069 L12.9268323,132.539 C6.15383225,132.06 1.05283225,126.182 1.53083225,119.408 L3.74783225,88.064 C3.86683225,86.372 5.26483225,85.298 6.72683225,85.298 C7.44183225,85.298 8.17383225,85.557 8.77783225,86.126 C12.0448323,89.211 16.1758323,91.187 20.7728323,91.512 C21.2218323,91.543 21.6668323,91.559 22.1088323,91.559 C33.2428323,91.559 42.7568323,81.697 43.6628323,68.881 C44.6048323,55.555 35.8848323,44.081 24.1868323,43.254 C23.7398323,43.223 23.2968323,43.207 22.8558323,43.207 C18.7468323,43.207 14.8648323,44.555 11.5528323,46.898 C11.0048323,47.284 10.4038323,47.459 9.81983225,47.459 C8.20283225,47.459 6.71283225,46.123 6.84383225,44.273 L9.05983225,12.927 C9.51883225,6.449 14.9158323,1.49999985 21.3108323,1.49999985" id="Fill-99" fill="#FFFFFE"></path>
                        <g id="Group-103" transform="translate(1.084832, 0.510000)">
                            <mask id="mask-2" fill="white">
                                <use xlink:href="#path-1"></use>
                            </mask>
                            <g id="Clip-101"></g>
                            <path d="M56.857,135.212 L44.689,134.352 C48.547,126.867 53.765,120.263 59.973,114.835 C71.752,104.526 87.136,98.396 103.611,98.396 C106.391,98.396 109.2,98.57 112.025,98.928 C119.548,99.88 126.626,102.063 133.074,105.246 L132.222,117.305 C125.826,113.453 118.542,110.843 110.643,109.841 C108.277,109.541 105.93,109.396 103.611,109.396 C89.882,109.396 77.064,114.5 67.217,123.113 C63.222,126.612 59.723,130.678 56.857,135.212" id="Fill-100" fill="#93A5C9" mask="url(#mask-2)"></path>
                            <path d="M124.25,138.503 C119.485,134.336 113.49,131.504 106.724,130.645 C105.313,130.466 103.915,130.379 102.534,130.379 C102.534,130.379 102.534,130.379 102.533,130.379 C95.198,130.379 88.301,132.827 82.723,137.041 L68.149,136.011 C69.804,133.928 71.64,132.006 73.629,130.268 C81.426,123.442 91.619,119.38 102.534,119.379 C104.375,119.379 106.236,119.495 108.106,119.732 C116.956,120.85 124.885,124.548 131.193,129.963 C130.343,133.813 127.707,136.939 124.25,138.503" id="Fill-102" fill="#93A5C9" mask="url(#mask-2)"></path>
                        </g>
                    </g>
                    <g id="Group-4" transform="translate(-0.000000, 0.000000)">
                        <path d="M119.723748,146.068 C119.178748,146.068 118.625748,146.033 118.081748,145.964 L85.7197482,141.896 C84.2147482,141.708 83.0187482,140.684 82.5987482,139.226 C82.1807482,137.775 82.6457482,136.28 83.8127482,135.325 C87.7207482,132.125 90.1997482,127.76 90.7937482,123.034 C91.4737482,117.624 89.7077482,112.229 85.8197482,107.843 C81.9077482,103.43 76.3227482,100.569 70.0927482,99.786 C68.9747482,99.645 67.8427482,99.574 66.7267482,99.574 C55.1937482,99.574 45.5437482,107.146 44.2817482,117.188 C43.6877482,121.915 45.0087482,126.757 48.0037482,130.824 C48.8507482,131.974 48.9727482,133.421 48.3287482,134.694 C47.6877482,135.962 46.4187482,136.75 45.0177482,136.75 C44.8577482,136.75 44.6947482,136.739 44.5287482,136.718 L12.1677482,132.651 C8.71074818,132.216 5.62974818,130.461 3.49274818,127.71 C1.35574818,124.959 0.418748176,121.539 0.852748176,118.083 L14.1657482,12.168 C14.9837482,5.659 20.5407482,0.751 27.0917482,0.751 C27.6367482,0.751 28.1897482,0.785 28.7347482,0.854 L134.648748,14.167 C138.104748,14.601 141.186748,16.355 143.322748,19.108 C145.460748,21.859 146.397748,25.278 145.963748,28.735 L141.962748,60.567 C141.724748,62.463 140.157748,63.84 138.236748,63.84 C137.166748,63.84 136.183748,63.389 135.470748,62.569 C132.281748,58.909 128.186748,56.671 123.626748,56.098 C122.876748,56.003 122.115748,55.956 121.364748,55.956 C110.893748,55.956 101.871748,64.916 100.377748,76.799 C98.7657482,89.622 106.572748,101.201 117.780748,102.61 C118.525748,102.704 119.283748,102.751 120.031748,102.751 C123.814748,102.751 127.557748,101.547 130.856748,99.27 C131.483748,98.837 132.205748,98.609 132.944748,98.609 C134.014748,98.609 135.040748,99.077 135.759748,99.891 C136.470748,100.697 136.787748,101.736 136.651748,102.817 L132.649748,134.649 C131.832748,141.159 126.274748,146.068 119.723748,146.068" id="Fill-104" fill="#F3C1C1"></path>
                        <path d="M27.0917482,0 L27.0917482,1.5 L27.0917482,0 C20.1637482,0 14.2867482,5.19 13.4217482,12.075 L0.108748176,117.989 C-0.840251824,125.536 4.52774818,132.447 12.0737482,133.395 L44.4357482,137.462 C44.6297482,137.487 44.8257482,137.5 45.0177482,137.5 C46.7037482,137.5 48.2287482,136.554 48.9987482,135.032 C49.7607482,133.525 49.6107482,131.742 48.6077482,130.379 C45.7277482,126.467 44.4557482,121.816 45.0257482,117.282 C46.2407482,107.614 55.5707482,100.324 66.7267482,100.324 C67.8117482,100.324 68.9127482,100.393 69.9987482,100.53 C82.4127482,102.09 91.4067482,112.144 90.0497482,122.941 C89.4797482,127.475 87.0957482,131.668 83.3377482,134.745 C81.9347482,135.893 81.3757482,137.69 81.8777482,139.433 C82.3827482,141.184 83.8187482,142.413 85.6267482,142.64 L117.987748,146.709 C118.563748,146.781 119.147748,146.817 119.723748,146.817 C126.651748,146.817 132.528748,141.626 133.393748,134.743 L137.395748,102.911 C137.558748,101.613 137.177748,100.365 136.321748,99.395 C135.460748,98.418 134.229748,97.859 132.944748,97.859 C132.052748,97.859 131.183748,98.133 130.430748,98.653 C127.257748,100.843 123.662748,102 120.033748,102 C119.315748,102 118.589748,101.956 117.873748,101.866 C112.680748,101.212 108.077748,98.281 104.913748,93.61 C101.707748,88.878 100.361748,82.941 101.121748,76.892 C102.568748,65.384 111.271748,56.706 121.364748,56.706 C122.084748,56.706 122.814748,56.752 123.532748,56.842 C127.906748,57.392 131.838748,59.543 134.904748,63.062 C135.762748,64.047 136.946748,64.59 138.237748,64.59 C140.503748,64.59 142.424748,62.901 142.706748,60.661 L146.707748,28.828 C147.166748,25.173 146.175748,21.557 143.915748,18.647 C141.654748,15.737 138.396748,13.882 134.741748,13.422 L28.8277482,0.109 C28.2527482,0.037 27.6687482,0 27.0917482,0 M27.0917482,1.5 C27.6027482,1.5 28.1207482,1.532 28.6407482,1.598 L134.554748,14.911 C141.291748,15.757 146.065748,21.905 145.219748,28.641 L141.217748,60.473 C141.013748,62.098 139.641748,63.09 138.237748,63.09 C137.445748,63.09 136.642748,62.774 136.035748,62.077 C132.866748,58.438 128.611748,55.968 123.719748,55.353 C122.929748,55.254 122.144748,55.206 121.364748,55.206 C110.662748,55.206 101.186748,64.351 99.6337482,76.705 C97.9677482,89.96 106.049748,101.891 117.686748,103.354 C118.473748,103.453 119.256748,103.501 120.033748,103.501 C124.081748,103.501 127.950748,102.187 131.282748,99.887 C131.811748,99.522 132.385748,99.359 132.944748,99.359 C134.614748,99.359 136.146748,100.819 135.907748,102.723 L131.905748,134.555 C131.124748,140.772 125.830748,145.317 119.723748,145.317 C119.212748,145.317 118.695748,145.286 118.174748,145.22 L85.8137482,141.152 C83.2237482,140.827 82.2677482,137.559 84.2877482,135.905 C88.2157482,132.69 90.8937482,128.254 91.5377482,123.128 C93.0007482,111.492 83.4407482,100.708 70.1867482,99.042 C69.0207482,98.895 67.8667482,98.824 66.7267482,98.824 C54.9147482,98.824 44.8717482,106.481 43.5377482,117.094 C42.8927482,122.221 44.3897482,127.181 47.3997482,131.268 C48.8677482,133.262 47.3837482,136 45.0177482,136 C44.8887482,136 44.7567482,135.992 44.6227482,135.974 L12.2607482,131.907 C5.52474818,131.06 0.750748176,124.913 1.59674818,118.176 L14.9097482,12.262 C15.6917482,6.045 20.9857482,1.5 27.0917482,1.5" id="Fill-105" fill="#FFFFFE"></path>
                        <g id="Group-110" transform="translate(0.959748, 0.939000)">
                            <mask id="mask-4" fill="white">
                                <use xlink:href="#path-3"></use>
                            </mask>
                            <g id="Clip-107"></g>
                            <path d="M13.558,78.939 C13.555,78.939 13.551,78.939 13.548,78.939 C13.543,78.939 13.542,78.939 13.537,78.939 C10.822,78.939 8.143,78.775 5.512,78.457 L6.884,67.542 C9.068,67.804 11.291,67.939 13.548,67.939 C28.852,67.936 42.657,61.751 52.692,51.725 C62.719,41.689 68.904,27.884 68.907,12.58 C68.906,10.28 68.766,8.013 68.494,5.789 L79.692,7.196 C79.834,8.973 79.9070004,10.768 79.9070004,12.58 C79.909,30.887 72.471,47.512 60.471,59.503 C48.482,71.501 31.861,78.939 13.558,78.939" id="Fill-106" fill="#F7D1CF" mask="url(#mask-4)"></path>
                            <path d="M12.284,58.274 C12.281,58.274 12.277,58.274 12.274,58.274 C12.27,58.274 12.268,58.274 12.264,58.274 C10.852,58.274 9.454,58.212 8.072,58.089 L9.445,47.165 C10.378,47.237 11.322,47.274 12.274,47.274 C22.224,47.272 31.181,43.257 37.707,36.74 C44.225,30.213 48.239,21.256 48.242,11.306 C48.241,8.489 47.919,5.751 47.309,3.126 L58.762,4.565 C59.079,6.767 59.243,9.019 59.2420045,11.306 C59.245,24.259 53.977,36.036 45.486,44.518 C37.005,53.007 25.233,58.275 12.284,58.274" id="Fill-108" fill="#F7D1CF" mask="url(#mask-4)"></path>
                            <path d="M13.558,38.208 C13.555,38.208 13.551,38.208 13.548,38.208 C13.544,38.208 13.541,38.208 13.538,38.208 C12.542,38.208 11.559,38.151 10.592,38.039 L11.964,27.123 C12.484,27.179 13.012,27.208 13.548,27.208 C17.604,27.205 21.227,25.579 23.891,22.924 C26.547,20.259 28.173,16.637 28.176,12.58 C28.173,8.523 26.547,4.901 23.891,2.237 C23.481,1.828 23.047,1.443 22.593,1.084 C23.72,0.743 24.91,0.561 26.132,0.561 C26.643,0.561 27.161,0.593 27.681,0.659 L36.805,1.806 C38.326,5.085 39.177,8.741 39.176001,12.58 C39.178,19.64 36.299,26.081 31.67,30.702 C27.051,35.329 20.614,38.208 13.558,38.208" id="Fill-109" fill="#F7D1CF" mask="url(#mask-4)"></path>
                        </g>
                    </g>
                    <g id="Group-3" transform="translate(111.870160, 5.421000)">
                        <path d="M104.744588,174.009 C98.1015878,173.94 91.8745878,171.6 87.2125878,167.42 C82.5235878,163.216 79.9735878,157.657 80.0345878,151.766 C80.0885878,146.597 82.2155878,141.597 86.0245878,137.687 C86.7745878,136.916 86.7515878,135.946 86.4805878,135.293 C86.2065878,134.635 85.5275878,133.929 84.4425878,133.917 L51.7875878,133.579 C48.3035878,133.542 45.0415878,132.152 42.6045878,129.663 C40.1665878,127.173 38.8435878,123.884 38.8795878,120.4 L39.2075878,88.808 C39.2155878,88.033 38.8675878,87.517 38.5735878,87.22 C38.1465878,86.789 37.5595878,86.541 36.9615878,86.541 C36.4635878,86.541 35.9885878,86.715 35.5885878,87.044 C31.8135878,90.152 27.3505878,91.794 22.6815878,91.794 L22.4775878,91.793 C16.5865878,91.733 11.0805878,89.069 6.97458775,84.292 C2.89258775,79.544 0.682587754,73.27 0.750019533,66.627 C0.893587754,53.002 10.7795878,41.917 22.7905878,41.917 L22.9955878,41.918 C27.7365878,41.967 32.2365878,43.703 36.0055878,46.939 C36.4105878,47.287 36.8975878,47.471 37.4115878,47.471 C38.4825878,47.471 39.6455878,46.622 39.6595878,45.251 L39.9875878,13.658 C40.0625878,6.54 45.9115878,0.75 53.0275878,0.75 L159.907588,1.859 C163.391588,1.895 166.652588,3.286 169.091588,5.775 C171.528588,8.264 172.851588,11.553 172.816304,15.037 L171.707588,121.779 C171.633588,128.896 165.783588,134.687 158.668588,134.687 L125.873588,134.347 C124.771588,134.347 124.085588,135.041 123.803588,135.692 C123.441588,136.526 123.595588,137.42 124.215588,138.084 C127.942588,142.072 129.964588,147.115 129.910588,152.284 C129.785588,164.264 118.631588,174.011 105.044588,174.011 L104.744588,174.009" id="Fill-111" fill="#B3C0D8"></path>
                        <path d="M53.0275878,1.42108547e-14 C45.5025878,1.42108547e-14 39.3165878,6.123 39.2375878,13.65 L38.9095878,45.243 C38.9005878,46.168 38.1415878,46.721 37.4115878,46.721 C37.0735878,46.721 36.7655878,46.603 36.4935878,46.37 C32.5905878,43.018 27.9245878,41.219 23.0025878,41.168 L22.7895878,41.167 C10.3695878,41.167 0.147587754,52.585 0,66.62 C-0.145412246,80.784 9.93358775,92.414 22.4695878,92.543 L22.6825878,92.544 C27.5265878,92.544 32.1535878,90.843 36.0665878,87.623 C36.3335878,87.403 36.6355878,87.291 36.9615878,87.291 C37.3605878,87.291 37.7535878,87.457 38.0405878,87.747 C38.2345878,87.943 38.4635878,88.284 38.4575878,88.8 L38.1295878,120.392 C38.0515878,127.997 44.1745878,134.249 51.7795878,134.329 L84.4345878,134.667 C85.3415878,134.677 85.6995878,135.369 85.7875878,135.581 C85.8745878,135.79 86.1105878,136.523 85.4855878,137.164 C81.5425878,141.212 79.3405878,146.396 79.2845878,151.758 C79.1545878,164.294 90.5715878,174.613 104.736588,174.759 L105.043588,174.761 C119.040588,174.761 130.531588,164.681 130.659588,152.291 C130.716588,146.929 128.621588,141.702 124.763588,137.572 C124.155588,136.921 124.401588,136.197 124.490588,135.99 C124.581588,135.781 124.948588,135.097 125.848588,135.097 L158.521588,135.436 L158.667588,135.437 C166.193588,135.437 172.379588,129.314 172.457588,121.787 L173.566344,15.045 C173.644588,7.439 167.521588,1.188 159.915588,1.109 L53.1745878,1.42108547e-14 L53.0275878,1.42108547e-14 Z M53.0275878,1.5 L53.1585878,1.5 L159.900588,2.609 C166.689588,2.679 172.136588,8.24 172.066274,15.029 L170.957588,121.771 C170.887588,128.517 165.397588,133.937 158.667588,133.937 L158.536588,133.936 L125.881588,133.597 L125.848588,133.597 C123.256588,133.597 121.890588,136.694 123.666588,138.596 C127.146588,142.319 129.214588,147.091 129.159588,152.276 C129.039588,163.918 118.270588,173.261 105.043588,173.261 C104.946588,173.261 104.849588,173.261 104.751588,173.261 C91.3935878,173.121 80.6625878,163.501 80.7845878,151.774 C80.8385878,146.589 83.0055878,141.861 86.5615878,138.21 C88.3845878,136.338 87.0645878,133.195 84.4495878,133.167 L51.7955878,132.829 C45.0055878,132.758 39.5595878,127.197 39.6295878,120.408 L39.9575878,88.815 C39.9765878,87.03 38.5095878,85.791 36.9615878,85.791 C36.3265878,85.791 35.6775878,85.999 35.1115878,86.465 C31.6115878,89.346 27.3185878,91.044 22.6825878,91.044 L22.4855878,91.043 C10.7575878,90.921 1.36258775,79.994 1.50006505,66.635 C1.63958775,53.352 11.1515878,42.667 22.7895878,42.667 L22.9865878,42.668 C27.6975878,42.717 32.0275878,44.513 35.5165878,47.508 C36.0905878,48 36.7575878,48.221 37.4115878,48.221 C38.9385878,48.221 40.3915878,47.02 40.4095878,45.259 L40.7375878,13.666 C40.8085878,6.92 46.2975878,1.5 53.0275878,1.5 L53.0275878,1.5 Z" id="Fill-112" fill="#FFFFFE"></path>
                        <g id="Group-163" transform="translate(1.089588, 0.518000)">
                            <mask id="mask-6" fill="white">
                                <use xlink:href="#path-5"></use>
                            </mask>
                            <g id="Clip-114"></g>
                            <path d="M3.701,20.663 C2.134,20.927 0.65,19.872 0.386,18.305 C0.122,16.738 1.178,15.254 2.744,14.99 C4.311,14.726 5.794,15.782 6.059,17.348 C6.323,18.915 5.268,20.399 3.701,20.663" id="Fill-113" fill="#FFFFFE" mask="url(#mask-6)"></path>
                            <path d="M30.451,16.151 C28.885,16.415 27.4,15.359 27.136,13.793 C26.872,12.227 27.928,10.742 29.494,10.478 C31.061,10.214 32.545,11.27 32.809,12.836 C33.073,14.402 32.018,15.887 30.451,16.151" id="Fill-115" fill="#FFFFFE" mask="url(#mask-6)"></path>
                            <path d="M57.201,11.639 C55.635,11.903 54.15,10.847 53.886,9.281 C53.622,7.714 54.678,6.23 56.244,5.966 C57.811,5.702 59.295,6.757 59.559,8.324 C59.823,9.89 58.768,11.375 57.201,11.639" id="Fill-116" fill="#FFFFFE" mask="url(#mask-6)"></path>
                            <path d="M83.951,7.126 C82.384,7.391 80.9,6.335 80.636,4.769 C80.372,3.202 81.428,1.718 82.994,1.454 C84.561,1.189 86.044,2.245 86.309,3.812 C86.573,5.378 85.518,6.862 83.951,7.126" id="Fill-117" fill="#FFFFFE" mask="url(#mask-6)"></path>
                            <path d="M110.7,2.614 C109.134,2.878 107.65,1.823 107.386,0.256 C107.122,-1.31 108.178,-2.794 109.744,-3.059 C111.311,-3.323 112.794,-2.267 113.059,-0.701 C113.323,0.866 112.268,2.35 110.7,2.614" id="Fill-118" fill="#FFFFFE" mask="url(#mask-6)"></path>
                            <path d="M7.405,42.625 C5.839,42.889 4.355,41.833 4.091,40.267 C3.826,38.7 4.882,37.216 6.449,36.952 C8.015,36.688 9.499,37.744 9.763,39.31 C10.028,40.876 8.972,42.36 7.405,42.625" id="Fill-119" fill="#FFFFFE" mask="url(#mask-6)"></path>
                            <path d="M34.155,38.112 C32.589,38.377 31.104,37.321 30.841,35.754 C30.576,34.188 31.632,32.704 33.198,32.44 C34.765,32.176 36.249,33.231 36.514,34.798 C36.777,36.364 35.722,37.848 34.155,38.112" id="Fill-120" fill="#FFFFFE" mask="url(#mask-6)"></path>
                            <path d="M60.905,33.6 C59.339,33.865 57.854,32.809 57.591,31.242 C57.326,29.676 58.382,28.192 59.948,27.928 C61.515,27.664 62.999,28.719 63.264,30.286 C63.527,31.852 62.472,33.336 60.905,33.6" id="Fill-121" fill="#FFFFFE" mask="url(#mask-6)"></path>
                            <path d="M87.655,29.088 C86.089,29.353 84.604,28.297 84.341,26.73 C84.076,25.164 85.132,23.68 86.698,23.416 C88.265,23.151 89.749,24.207 90.014,25.773 C90.277,27.34 89.222,28.824 87.655,29.088" id="Fill-122" fill="#FFFFFE" mask="url(#mask-6)"></path>
                            <path d="M114.405,24.576 C112.839,24.84 111.354,23.785 111.091,22.218 C110.826,20.651 111.882,19.167 113.448,18.903 C115.015,18.639 116.499,19.695 116.763,21.261 C117.027,22.828 115.972,24.312 114.405,24.576" id="Fill-123" fill="#FFFFFE" mask="url(#mask-6)"></path>
                            <path d="M141.155,20.064 C139.589,20.328 138.104,19.272 137.84,17.706 C137.576,16.139 138.632,14.655 140.198,14.391 C141.765,14.127 143.249,15.183 143.513,16.749 C143.777,18.315 142.722,19.799 141.155,20.064" id="Fill-124" fill="#FFFFFE" mask="url(#mask-6)"></path>
                            <path d="M167.905,15.552 C166.339,15.816 164.854,14.76 164.59,13.193 C164.326,11.627 165.382,10.143 166.948,9.879 C168.515,9.615 169.999,10.67 170.263,12.237 C170.527,13.803 169.472,15.287 167.905,15.552" id="Fill-125" fill="#FFFFFE" mask="url(#mask-6)"></path>
                            <path d="M11.11,64.586 C9.543,64.851 8.06,63.795 7.795,62.229 C7.531,60.662 8.587,59.178 10.153,58.914 C11.72,58.649 13.204,59.705 13.468,61.272 C13.732,62.838 12.676,64.322 11.11,64.586" id="Fill-126" fill="#FFFFFE" mask="url(#mask-6)"></path>
                            <path d="M37.86,60.074 C36.294,60.338 34.81,59.283 34.545,57.716 C34.281,56.15 35.337,54.666 36.903,54.402 C38.47,54.137 39.953,55.193 40.218,56.76 C40.482,58.326 39.427,59.81 37.86,60.074" id="Fill-127" fill="#FFFFFE" mask="url(#mask-6)"></path>
                            <path d="M64.61,55.562 C63.043,55.826 61.56,54.771 61.295,53.204 C61.031,51.638 62.087,50.154 63.653,49.89 C65.22,49.625 66.703,50.681 66.968,52.248 C67.232,53.814 66.177,55.298 64.61,55.562" id="Fill-128" fill="#FFFFFE" mask="url(#mask-6)"></path>
                            <path d="M91.359,51.05 C89.793,51.314 88.31,50.258 88.045,48.692 C87.781,47.125 88.836,45.642 90.403,45.377 C91.97,45.113 93.453,46.168 93.718,47.735 C93.981,49.302 92.927,50.786 91.359,51.05" id="Fill-129" fill="#FFFFFE" mask="url(#mask-6)"></path>
                            <path d="M118.109,46.538 C116.543,46.802 115.06,45.746 114.795,44.18 C114.53,42.613 115.586,41.129 117.152,40.865 C118.72,40.601 120.203,41.657 120.468,43.223 C120.731,44.79 119.676,46.273 118.109,46.538" id="Fill-130" fill="#FFFFFE" mask="url(#mask-6)"></path>
                            <path d="M144.859,42.025 C143.293,42.29 141.81,41.234 141.545,39.667 C141.28,38.101 142.336,36.617 143.902,36.353 C145.469,36.088 146.953,37.145 147.218,38.711 C147.481,40.277 146.426,41.761 144.859,42.025" id="Fill-131" fill="#FFFFFE" mask="url(#mask-6)"></path>
                            <path d="M171.609,37.513 C170.043,37.778 168.559,36.722 168.295,35.155 C168.03,33.589 169.086,32.105 170.652,31.841 C172.219,31.576 173.703,32.632 173.968,34.199 C174.231,35.765 173.176,37.249 171.609,37.513" id="Fill-132" fill="#FFFFFE" mask="url(#mask-6)"></path>
                            <path d="M14.814,86.548 C13.248,86.813 11.764,85.757 11.5,84.19 C11.235,82.624 12.291,81.14 13.858,80.875 C15.424,80.611 16.908,81.667 17.172,83.233 C17.437,84.8 16.381,86.284 14.814,86.548" id="Fill-133" fill="#FFFFFE" mask="url(#mask-6)"></path>
                            <path d="M41.564,82.036 C39.998,82.3 38.514,81.245 38.25,79.678 C37.985,78.112 39.041,76.628 40.607,76.363 C42.174,76.099 43.658,77.155 43.923,78.721 C44.187,80.288 43.131,81.772 41.564,82.036" id="Fill-134" fill="#FFFFFE" mask="url(#mask-6)"></path>
                            <path d="M68.314,77.524 C66.748,77.788 65.264,76.732 65,75.166 C64.735,73.6 65.791,72.116 67.357,71.851 C68.924,71.587 70.408,72.643 70.672,74.209 C70.937,75.776 69.881,77.26 68.314,77.524" id="Fill-135" fill="#FFFFFE" mask="url(#mask-6)"></path>
                            <path d="M95.064,73.012 C93.498,73.276 92.014,72.22 91.749,70.654 C91.485,69.087 92.541,67.604 94.107,67.339 C95.674,67.075 97.158,68.13 97.422,69.697 C97.687,71.264 96.631,72.748 95.064,73.012" id="Fill-136" fill="#FFFFFE" mask="url(#mask-6)"></path>
                            <path d="M121.814,68.5 C120.248,68.764 118.764,67.708 118.499,66.142 C118.235,64.575 119.291,63.091 120.857,62.827 C122.424,62.563 123.908,63.618 124.172,65.185 C124.437,66.751 123.381,68.235 121.814,68.5" id="Fill-137" fill="#FFFFFE" mask="url(#mask-6)"></path>
                            <path d="M148.564,63.987 C146.998,64.251 145.514,63.196 145.249,61.629 C144.985,60.063 146.041,58.579 147.607,58.315 C149.174,58.05 150.658,59.106 150.922,60.672 C151.187,62.239 150.131,63.723 148.564,63.987" id="Fill-138" fill="#FFFFFE" mask="url(#mask-6)"></path>
                            <path d="M18.519,108.51 C16.953,108.774 15.468,107.719 15.204,106.152 C14.94,104.586 15.996,103.102 17.562,102.838 C19.129,102.573 20.613,103.629 20.877,105.195 C21.141,106.762 20.085,108.246 18.519,108.51" id="Fill-139" fill="#FFFFFE" mask="url(#mask-6)"></path>
                            <path d="M45.269,103.998 C43.702,104.262 42.219,103.207 41.954,101.64 C41.69,100.073 42.746,98.59 44.313,98.325 C45.879,98.062 47.362,99.117 47.627,100.684 C47.891,102.25 46.836,103.733 45.269,103.998" id="Fill-140" fill="#FFFFFE" mask="url(#mask-6)"></path>
                            <path d="M72.019,99.485 C70.452,99.75 68.969,98.694 68.704,97.128 C68.439,95.562 69.495,94.077 71.063,93.813 C72.629,93.549 74.112,94.604 74.377,96.171 C74.641,97.737 73.585,99.222 72.019,99.485" id="Fill-141" fill="#FFFFFE" mask="url(#mask-6)"></path>
                            <path d="M98.769,94.974 C97.202,95.238 95.719,94.183 95.454,92.615 C95.189,91.049 96.245,89.565 97.812,89.301 C99.379,89.037 100.862,90.093 101.127,91.659 C101.391,93.226 100.335,94.709 98.769,94.974" id="Fill-142" fill="#FFFFFE" mask="url(#mask-6)"></path>
                            <path d="M125.519,90.461 C123.952,90.726 122.468,89.67 122.204,88.104 C121.939,86.537 122.995,85.053 124.562,84.789 C126.128,84.524 127.612,85.58 127.877,87.146 C128.141,88.713 127.085,90.197 125.519,90.461" id="Fill-143" fill="#FFFFFE" mask="url(#mask-6)"></path>
                            <path d="M152.269,85.949 C150.702,86.213 149.218,85.158 148.954,83.591 C148.689,82.025 149.745,80.541 151.312,80.276 C152.878,80.012 154.362,81.068 154.627,82.634 C154.891,84.201 153.835,85.685 152.269,85.949" id="Fill-144" fill="#FFFFFE" mask="url(#mask-6)"></path>
                            <path d="M22.224,130.472 C20.657,130.736 19.173,129.681 18.909,128.114 C18.645,126.548 19.7,125.063 21.267,124.799 C22.833,124.535 24.317,125.591 24.582,127.157 C24.846,128.724 23.79,130.208 22.224,130.472" id="Fill-145" fill="#FFFFFE" mask="url(#mask-6)"></path>
                            <path d="M48.974,125.96 C47.407,126.224 45.923,125.168 45.659,123.602 C45.395,122.035 46.45,120.552 48.017,120.287 C49.583,120.022 51.067,121.078 51.331,122.645 C51.596,124.212 50.54,125.695 48.974,125.96" id="Fill-146" fill="#FFFFFE" mask="url(#mask-6)"></path>
                            <path d="M75.724,121.447 C74.157,121.712 72.673,120.656 72.409,119.09 C72.145,117.523 73.2,116.039 74.767,115.774 C76.333,115.511 77.817,116.566 78.081,118.133 C78.346,119.699 77.29,121.184 75.724,121.447" id="Fill-147" fill="#FFFFFE" mask="url(#mask-6)"></path>
                            <path d="M102.474,116.936 C100.907,117.199 99.423,116.144 99.158,114.577 C98.895,113.011 99.95,111.527 101.517,111.263 C103.083,110.998 104.567,112.055 104.831,113.62 C105.096,115.188 104.04,116.671 102.474,116.936" id="Fill-148" fill="#FFFFFE" mask="url(#mask-6)"></path>
                            <path d="M129.224,112.423 C127.657,112.688 126.173,111.632 125.908,110.065 C125.645,108.499 126.7,107.015 128.267,106.751 C129.833,106.486 131.317,107.542 131.581,109.108 C131.846,110.675 130.79,112.159 129.224,112.423" id="Fill-149" fill="#FFFFFE" mask="url(#mask-6)"></path>
                            <path d="M155.974,107.911 C154.407,108.175 152.923,107.119 152.658,105.553 C152.395,103.986 153.45,102.503 155.017,102.238 C156.583,101.974 158.066,103.03 158.331,104.597 C158.596,106.163 157.54,107.646 155.974,107.911" id="Fill-150" fill="#FFFFFE" mask="url(#mask-6)"></path>
                            <path d="M25.928,152.434 C24.362,152.698 22.877,151.643 22.613,150.076 C22.349,148.51 23.405,147.025 24.971,146.761 C26.538,146.497 28.021,147.553 28.286,149.119 C28.551,150.686 27.494,152.17 25.928,152.434" id="Fill-151" fill="#FFFFFE" mask="url(#mask-6)"></path>
                            <path d="M52.678,147.922 C51.111,148.186 49.628,147.13 49.363,145.563 C49.099,143.997 50.154,142.514 51.722,142.249 C53.288,141.984 54.771,143.04 55.036,144.606 C55.3,146.173 54.244,147.657 52.678,147.922" id="Fill-152" fill="#FFFFFE" mask="url(#mask-6)"></path>
                            <path d="M79.428,143.409 C77.861,143.674 76.377,142.618 76.113,141.052 C75.849,139.485 76.904,138.001 78.471,137.736 C80.037,137.473 81.521,138.528 81.786,140.095 C82.05,141.661 80.994,143.146 79.428,143.409" id="Fill-153" fill="#FFFFFE" mask="url(#mask-6)"></path>
                            <path d="M106.178,138.897 C104.611,139.161 103.127,138.105 102.863,136.539 C102.599,134.973 103.654,133.489 105.221,133.225 C106.787,132.96 108.271,134.016 108.536,135.582 C108.8,137.148 107.744,138.633 106.178,138.897" id="Fill-154" fill="#FFFFFE" mask="url(#mask-6)"></path>
                            <path d="M132.928,134.385 C131.361,134.649 129.877,133.594 129.613,132.027 C129.349,130.461 130.404,128.977 131.971,128.712 C133.537,128.448 135.021,129.504 135.286,131.07 C135.55,132.637 134.494,134.121 132.928,134.385" id="Fill-155" fill="#FFFFFE" mask="url(#mask-6)"></path>
                            <path d="M159.678,129.873 C158.111,130.137 156.627,129.081 156.363,127.515 C156.099,125.948 157.154,124.465 158.721,124.2 C160.287,123.936 161.771,124.991 162.036,126.558 C162.3,128.124 161.244,129.608 159.678,129.873" id="Fill-156" fill="#FFFFFE" mask="url(#mask-6)"></path>
                            <path d="M29.633,174.396 C28.066,174.66 26.582,173.604 26.318,172.038 C26.054,170.472 27.109,168.987 28.676,168.723 C30.242,168.459 31.727,169.515 31.99,171.081 C32.255,172.647 31.199,174.132 29.633,174.396" id="Fill-157" fill="#FFFFFE" mask="url(#mask-6)"></path>
                            <path d="M56.383,169.884 C54.816,170.147 53.332,169.092 53.067,167.525 C52.804,165.959 53.859,164.475 55.426,164.211 C56.992,163.946 58.477,165.002 58.74,166.568 C59.005,168.135 57.949,169.619 56.383,169.884" id="Fill-158" fill="#FFFFFE" mask="url(#mask-6)"></path>
                            <path d="M83.133,165.371 C81.566,165.636 80.082,164.58 79.817,163.014 C79.554,161.447 80.609,159.963 82.176,159.698 C83.742,159.435 85.227,160.49 85.49,162.057 C85.755,163.623 84.699,165.107 83.133,165.371" id="Fill-159" fill="#FFFFFE" mask="url(#mask-6)"></path>
                            <path d="M109.883,160.859 C108.316,161.123 106.832,160.067 106.567,158.501 C106.304,156.935 107.359,155.45 108.926,155.187 C110.492,154.922 111.977,155.978 112.24,157.544 C112.505,159.11 111.449,160.595 109.883,160.859" id="Fill-160" fill="#FFFFFE" mask="url(#mask-6)"></path>
                            <path d="M136.633,156.347 C135.065,156.611 133.582,155.556 133.317,153.989 C133.054,152.423 134.109,150.938 135.676,150.674 C137.242,150.41 138.727,151.466 138.99,153.032 C139.255,154.599 138.199,156.083 136.633,156.347" id="Fill-161" fill="#FFFFFE" mask="url(#mask-6)"></path>
                            <path d="M163.382,151.835 C161.815,152.099 160.332,151.043 160.067,149.477 C159.804,147.91 160.859,146.426 162.426,146.162 C163.992,145.897 165.476,146.953 165.74,148.52 C166.005,150.086 164.949,151.57 163.382,151.835" id="Fill-162" fill="#FFFFFE" mask="url(#mask-6)"></path>
                        </g>
                    </g>
                    <g id="Group-2" transform="translate(1.678815, 111.682000)">
                        <path d="M19.7549333,176.119 C12.8469333,176.119 7.13193333,170.711 6.74393333,163.806 L0.769933334,57.226 C0.367933334,50.044 5.88293333,43.874 13.0639333,43.472 L45.5579333,41.651 C46.6389333,41.59 47.2849333,40.857 47.5299333,40.19 C47.8439333,39.333 47.6369333,38.449 46.9779333,37.823 C43.0599333,34.108 40.7449333,29.25 40.4589333,24.143 C39.7809333,12.039 50.3989333,1.566 64.1289333,0.795 C64.6679333,0.765 65.2019333,0.75 65.7339333,0.75 C78.8389333,0.75 89.6119333,9.799 90.2589333,21.351 C90.5459333,26.458 88.7879333,31.545 85.3109333,35.675 C84.7429333,36.349 84.6259333,37.229 84.9979333,38.028 C85.2889333,38.654 85.9719333,39.323 87.0109333,39.323 L87.1489333,39.319 L119.643933,37.498 C119.891933,37.484 120.138933,37.478 120.383933,37.478 C127.293933,37.478 133.009933,42.887 133.396933,49.791 L135.184933,81.692 C135.259933,83.017 136.385933,83.809 137.432933,83.809 C137.831933,83.809 138.418933,83.698 138.950933,83.175 C142.627933,79.557 147.163933,77.499 152.067933,77.224 C152.436933,77.203 152.804933,77.193 153.170933,77.193 C164.898933,77.193 174.670933,87.604 175.414933,100.894 C175.786933,107.527 173.864933,113.895 170.003933,118.824 C166.119933,123.782 160.740933,126.694 154.858933,127.024 C154.490933,127.045 154.124933,127.055 153.759933,127.055 C149.250933,127.055 144.893933,125.506 141.159933,122.576 C140.764933,122.267 140.301933,122.104 139.821933,122.104 C139.207933,122.104 138.606933,122.364 138.176933,122.82 C137.880933,123.133 137.537933,123.673 137.582933,124.471 L139.370933,156.372 C139.565933,159.851 138.394933,163.196 136.072933,165.794 C133.750933,168.392 130.555933,169.93 127.077933,170.125 L20.4979333,176.099 C20.2489333,176.112 20.0019333,176.119 19.7549333,176.119" id="Fill-164" fill="#A1B5D3"></path>
                        <path d="M65.7359333,0 L65.7349333,0 C65.1899333,0 64.6349333,0.016 64.0869333,0.047 C57.2719333,0.429 50.9879333,3.126 46.3899333,7.642 C41.7409333,12.209 39.3679333,18.084 39.7109333,24.185 C40.0069333,29.484 42.4049333,34.521 46.4609333,38.367 C47.1069333,38.98 46.9039333,39.719 46.8259333,39.931 C46.7469333,40.146 46.4199333,40.852 45.5159333,40.903 L13.0219333,42.724 C5.42693333,43.15 -0.404066666,49.674 0.0219333344,57.268 L5.99593333,163.848 C6.40493333,171.149 12.4489333,176.87 19.7569333,176.87 C20.0169333,176.87 20.2769333,176.862 20.5399333,176.848 L127.119933,170.874 C130.797933,170.667 134.176933,169.041 136.631933,166.294 C139.087933,163.547 140.325933,160.009 140.119933,156.33 L138.331933,124.429 C138.301933,123.898 138.526933,123.541 138.720933,123.335 C139.007933,123.033 139.418933,122.854 139.821933,122.854 C140.136933,122.854 140.430933,122.959 140.696933,123.167 C144.564933,126.201 149.081933,127.805 153.759933,127.805 C154.137933,127.805 154.518933,127.794 154.900933,127.773 C161.001933,127.431 166.574933,124.417 170.593933,119.286 C174.567933,114.213 176.545933,107.666 176.163933,100.852 C175.395933,87.165 165.296933,76.444 153.170933,76.444 C152.790933,76.444 152.409933,76.454 152.025933,76.476 C146.937933,76.761 142.234933,78.893 138.424933,82.64 C138.073933,82.986 137.691933,83.058 137.432933,83.058 C136.744933,83.058 135.984933,82.565 135.933933,81.65 L134.145933,49.749 C133.735933,42.448 127.691933,36.729 120.384933,36.728 C120.124933,36.728 119.863933,36.735 119.601933,36.749 L87.1069333,38.57 L87.0109333,38.573 C86.1459333,38.573 85.7719333,37.914 85.6779333,37.712 C85.5599333,37.459 85.3439333,36.8 85.8849333,36.158 C89.4859333,31.881 91.3049333,26.609 91.0079333,21.309 C90.3389333,9.361 79.2369333,0 65.7349333,0 L65.7359333,0 M65.7349333,1.5 C78.3849333,1.5 88.8799333,10.145 89.5099333,21.393 C89.7979333,26.521 87.9849333,31.335 84.7379333,35.192 C83.0989333,37.138 84.5209333,40.073 87.0109333,40.073 L87.1909333,40.069 L119.685933,38.247 C119.919933,38.234 120.152933,38.228 120.383933,38.228 C126.858933,38.228 132.280933,43.289 132.647933,49.833 L134.435933,81.734 C134.531933,83.446 135.956933,84.558 137.432933,84.558 C138.150933,84.558 138.881933,84.295 139.476933,83.709 C142.873933,80.367 147.244933,78.246 152.109933,77.973 C152.465933,77.953 152.817933,77.944 153.170933,77.944 C164.422933,77.944 173.940933,88.003 174.665933,100.936 C175.413933,114.275 166.526933,125.619 154.816933,126.276 C154.462933,126.295 154.109933,126.305 153.759933,126.305 C149.289933,126.305 145.097933,124.714 141.622933,121.986 C141.064933,121.549 140.435933,121.354 139.821933,121.354 C138.226933,121.354 136.730933,122.675 136.833933,124.513 L138.621933,156.414 C139.001933,163.193 133.814933,168.996 127.035933,169.376 L20.4559333,175.35 C20.2209333,175.363 19.9889333,175.37 19.7569333,175.37 C13.2819333,175.37 7.85993333,170.308 7.49293333,163.764 L1.51893333,57.184 C1.13893333,50.404 6.32693333,44.601 13.1059333,44.221 L45.5999333,42.4 C48.1999333,42.254 49.3829333,39.071 47.4929333,37.279 C43.8349333,33.81 41.4949333,29.228 41.2079333,24.101 C40.5519333,12.391 50.8329333,2.292 64.1709333,1.544 C64.6959333,1.515 65.2169333,1.5 65.7349333,1.5" id="Fill-165" fill="#FFFFFE"></path>
                        <g id="Group-184" transform="translate(1.280933, 1.257000)">
                            <mask id="mask-8" fill="white">
                                <use xlink:href="#path-7"></use>
                            </mask>
                            <g id="Clip-167"></g>
                            <path d="M21.746,111.279 C20.457,111.279 19.283,110.405 18.958,109.098 C18.573,107.557 19.511,105.995 21.052,105.61 C21.286,105.552 21.52,105.524 21.75,105.524 C23.04,105.524 24.213,106.398 24.539,107.705 C24.924,109.247 23.986,110.808 22.445,111.192 C22.211,111.251 21.977,111.279 21.746,111.279" id="Fill-166" fill="#C1CFE0" mask="url(#mask-8)"></path>
                            <path d="M48.067,104.712 C46.778,104.712 45.605,103.839 45.279,102.531 C44.894,100.99 45.832,99.429 47.374,99.044 C47.607,98.986 47.841,98.958 48.071,98.958 C49.361,98.958 50.534,99.831 50.86,101.139 C51.245,102.681 50.307,104.241 48.766,104.626 C48.532,104.684 48.297,104.712 48.067,104.712" id="Fill-168" fill="#C1CFE0" mask="url(#mask-8)"></path>
                            <path d="M74.388,98.146 C73.099,98.146 71.926,97.273 71.6,95.965 C71.215,94.424 72.153,92.862 73.694,92.479 C73.928,92.42 74.163,92.392 74.393,92.392 C75.683,92.392 76.855,93.265 77.182,94.573 C77.566,96.114 76.628,97.676 75.087,98.06 C74.853,98.118 74.619,98.146 74.388,98.146" id="Fill-169" fill="#C1CFE0" mask="url(#mask-8)"></path>
                            <path d="M100.711,91.58 C99.421,91.58 98.247,90.707 97.921,89.399 C97.537,87.857 98.474,86.297 100.016,85.912 C100.249,85.854 100.484,85.826 100.714,85.826 C102.004,85.826 103.176,86.699 103.503,88.007 C103.887,89.548 102.949,91.109 101.408,91.494 C101.175,91.552 100.941,91.58 100.711,91.58" id="Fill-170" fill="#C1CFE0" mask="url(#mask-8)"></path>
                            <path d="M27.137,132.888 C25.847,132.888 24.675,132.015 24.349,130.707 C23.964,129.166 24.901,127.604 26.443,127.221 C26.677,127.162 26.911,127.134 27.142,127.134 C28.431,127.134 29.604,128.007 29.93,129.315 C30.315,130.856 29.377,132.418 27.835,132.802 C27.602,132.86 27.367,132.888 27.137,132.888" id="Fill-171" fill="#C1CFE0" mask="url(#mask-8)"></path>
                            <path d="M53.459,126.322 C52.169,126.322 50.996,125.449 50.669,124.142 C50.285,122.6 51.223,121.039 52.764,120.654 C52.998,120.596 53.233,120.568 53.463,120.568 C54.752,120.568 55.925,121.441 56.251,122.749 C56.636,124.29 55.698,125.852 54.157,126.236 C53.923,126.294 53.689,126.322 53.459,126.322" id="Fill-172" fill="#C1CFE0" mask="url(#mask-8)"></path>
                            <path d="M79.78,119.756 C78.49,119.756 77.317,118.883 76.991,117.575 C76.606,116.034 77.544,114.473 79.085,114.088 C79.319,114.03 79.553,114.002 79.784,114.002 C81.073,114.002 82.246,114.875 82.572,116.183 C82.957,117.724 82.019,119.285 80.478,119.67 C80.244,119.728 80.01,119.756 79.78,119.756" id="Fill-173" fill="#C1CFE0" mask="url(#mask-8)"></path>
                            <path d="M106.1,113.19 C104.811,113.19 103.638,112.316 103.312,111.009 C102.927,109.468 103.865,107.906 105.407,107.521 C105.64,107.463 105.875,107.435 106.105,107.435 C107.394,107.435 108.568,108.309 108.894,109.616 C109.278,111.158 108.34,112.719 106.799,113.103 C106.565,113.162 106.331,113.19 106.1,113.19" id="Fill-174" fill="#C1CFE0" mask="url(#mask-8)"></path>
                            <path d="M6.208,161.064 C6.182,161.064 6.157,161.064 6.132,161.063 L5.811,155.338 C5.945,155.319 6.079,155.31 6.212,155.31 C7.501,155.31 8.674,156.183 9,157.491 C9.384,159.032 8.447,160.594 6.905,160.978 C6.672,161.037 6.438,161.064 6.208,161.064" id="Fill-175" fill="#C1CFE0" mask="url(#mask-8)"></path>
                            <path d="M32.528,154.498 C31.239,154.498 30.066,153.625 29.739,152.317 C29.355,150.776 30.293,149.215 31.834,148.83 C32.068,148.772 32.302,148.744 32.533,148.744 C33.822,148.744 34.995,149.618 35.321,150.925 C35.706,152.466 34.767,154.027 33.227,154.412 C32.993,154.47 32.759,154.498 32.528,154.498" id="Fill-176" fill="#C1CFE0" mask="url(#mask-8)"></path>
                            <path d="M58.849,147.932 C57.56,147.932 56.387,147.058 56.061,145.751 C55.676,144.21 56.614,142.648 58.155,142.264 C58.389,142.206 58.623,142.178 58.853,142.178 C60.142,142.178 61.316,143.051 61.642,144.358 C62.027,145.9 61.089,147.461 59.547,147.846 C59.314,147.904 59.079,147.932 58.849,147.932" id="Fill-177" fill="#C1CFE0" mask="url(#mask-8)"></path>
                            <path d="M85.17,141.366 C83.88,141.366 82.708,140.493 82.382,139.185 C81.997,137.644 82.935,136.082 84.476,135.697 C84.71,135.639 84.944,135.611 85.174,135.611 C86.464,135.611 87.637,136.484 87.963,137.792 C88.348,139.334 87.41,140.895 85.869,141.279 C85.635,141.338 85.4,141.366 85.17,141.366" id="Fill-178" fill="#C1CFE0" mask="url(#mask-8)"></path>
                            <path d="M111.491,134.799 C110.202,134.799 109.029,133.926 108.703,132.618 C108.318,131.077 109.256,129.516 110.797,129.132 C111.031,129.073 111.266,129.046 111.496,129.046 C112.786,129.046 113.958,129.919 114.285,131.226 C114.669,132.768 113.731,134.329 112.19,134.713 C111.956,134.771 111.722,134.799 111.491,134.799" id="Fill-179" fill="#C1CFE0" mask="url(#mask-8)"></path>
                            <path d="M35.044,173.203 C35.055,171.924 35.926,170.764 37.225,170.439 C37.458,170.381 37.692,170.353 37.922,170.353 C39.212,170.353 40.386,171.226 40.712,172.534 C40.741,172.65 40.762,172.766 40.777,172.882 L35.044,173.203" id="Fill-180" fill="#C1CFE0" mask="url(#mask-8)"></path>
                            <path d="M64.239,169.541 C62.95,169.541 61.777,168.668 61.451,167.361 C61.067,165.819 62.004,164.258 63.546,163.874 C63.78,163.816 64.014,163.788 64.245,163.788 C65.534,163.788 66.707,164.661 67.033,165.969 C67.417,167.51 66.48,169.071 64.939,169.455 C64.705,169.513 64.47,169.541 64.239,169.541" id="Fill-181" fill="#C1CFE0" mask="url(#mask-8)"></path>
                            <path d="M90.562,162.976 C89.272,162.976 88.099,162.103 87.772,160.795 C87.388,159.253 88.326,157.692 89.867,157.308 C90.101,157.249 90.336,157.221 90.566,157.221 C91.856,157.221 93.028,158.094 93.354,159.402 C93.739,160.943 92.801,162.505 91.26,162.89 C91.026,162.948 90.792,162.976 90.562,162.976" id="Fill-182" fill="#C1CFE0" mask="url(#mask-8)"></path>
                            <path d="M116.882,156.41 C115.593,156.41 114.42,155.536 114.094,154.228 C113.709,152.688 114.647,151.126 116.188,150.741 C116.422,150.683 116.656,150.655 116.887,150.655 C118.176,150.655 119.349,151.529 119.675,152.836 C120.06,154.377 119.122,155.939 117.581,156.323 C117.347,156.382 117.113,156.41 116.882,156.41" id="Fill-183" fill="#C1CFE0" mask="url(#mask-8)"></path>
                        </g>
                    </g>
                </g>
            </g>
        </g>
    </g>
</svg>